<svg width="43" height="34" fill="none" xmlns="http://www.w3.org/2000/svg"><path d="M11.445 0C5.06.409 0 5.589 0 11.928h6.246c0-2.965 2.268-5.453 5.234-5.828V0h-.035ZM13.085 0v6.1c2.93.41 5.163 2.863 5.163 5.828h6.246c0-6.34-5.06-11.52-11.41-11.928Z" fill="#2E2E2E"/><path d="M29.95 0c-6.385.409-11.444 5.589-11.444 11.928h6.245c0-2.965 2.268-5.453 5.234-5.828V0h-.035ZM31.59 0v6.1c2.931.41 5.164 2.863 5.164 5.828H43C43 5.588 37.975.408 31.59 0ZM20.656 27.627c-3.07-1.465-13.643-7.054-14.131-13.768H0C.488 23.88 16.748 32.16 20.621 34v-6.373h.035ZM36.427 13.86c-.453 6.713-11.06 12.302-14.131 13.767V34c3.873-1.84 20.168-10.121 20.621-20.14h-6.49Z" fill="#2E2E2E"/></svg>
